<svg width="200" height="120" viewBox="0 0 200 120" fill="none" xmlns="http://www.w3.org/2000/svg">
<g filter="url(#filter0_i_1_36)">
<path d="M27.7778 0L34.0143 20.7295H54.196L37.8686 33.541L44.1051 54.2705L27.7778 41.459L11.4504 54.2705L17.6869 33.541L1.35954 20.7295H21.5413L27.7778 0Z" fill="#D9D9D9"/>
</g>
<g filter="url(#filter1_i_1_36)">
<path d="M100 0L106.236 20.7295H126.418L110.091 33.541L116.327 54.2705L100 41.459L83.6726 54.2705L89.9091 33.541L73.5817 20.7295H93.7635L100 0Z" fill="#D9D9D9"/>
</g>
<g filter="url(#filter2_i_1_36)">
<path d="M172.222 0L178.459 20.7295H198.64L182.313 33.541L188.55 54.2705L172.222 41.459L155.895 54.2705L162.131 33.541L145.804 20.7295H165.986L172.222 0Z" fill="#D9D9D9"/>
</g>
<g filter="url(#filter3_i_1_36)">
<path d="M63.8889 60L70.1254 80.7295H90.3071L73.9798 93.541L80.2163 114.271L63.8889 101.459L47.5615 114.271L53.798 93.541L37.4707 80.7295H57.6524L63.8889 60Z" fill="#D9D9D9"/>
</g>
<g filter="url(#filter4_i_1_36)">
<path d="M136.111 60L142.348 80.7295H162.529L146.202 93.541L152.438 114.271L136.111 101.459L119.784 114.271L126.02 93.541L109.693 80.7295H129.875L136.111 60Z" fill="#D9D9D9"/>
</g>
<g filter="url(#filter5_i_1_36)">
<path d="M27.7778 0L34.0143 20.7295H54.196L37.8686 33.541L44.1051 54.2705L27.7778 41.459L11.4504 54.2705L17.6869 33.541L1.35954 20.7295H21.5413L27.7778 0Z" fill="#E5EA07"/>
</g>
<g filter="url(#filter6_i_1_36)">
<path d="M100 0L106.236 20.7295H126.418L110.091 33.541L116.327 54.2705L100 41.459L83.6726 54.2705L89.9091 33.541L73.5817 20.7295H93.7635L100 0Z" fill="#E5EA07"/>
</g>
<g filter="url(#filter7_i_1_36)">
<path d="M172.222 0L178.459 20.7295H198.64L182.313 33.541L188.55 54.2705L172.222 41.459L155.895 54.2705L162.131 33.541L145.804 20.7295H165.986L172.222 0Z" fill="#E5EA07"/>
</g>
<g filter="url(#filter8_i_1_36)">
<path d="M63.8889 60L70.1254 80.7295H90.3071L73.9798 93.541L80.2163 114.271L63.8889 101.459L47.5615 114.271L53.798 93.541L37.4707 80.7295H57.6524L63.8889 60Z" fill="#E5EA07"/>
</g>
<g filter="url(#filter9_i_1_36)">
<path d="M136.111 60L142.348 80.7295H162.529L146.202 93.541L152.438 114.271L136.111 101.459L119.784 114.271L126.02 93.541L109.693 80.7295H129.875L136.111 60Z" fill="#E5EA07"/>
</g>
<defs>
<filter id="filter0_i_1_36" x="1.35953" y="0" width="52.8365" height="58.2705" filterUnits="userSpaceOnUse" color-interpolation-filters="sRGB">
<feFlood flood-opacity="0" result="BackgroundImageFix"/>
<feBlend mode="normal" in="SourceGraphic" in2="BackgroundImageFix" result="shape"/>
<feColorMatrix in="SourceAlpha" type="matrix" values="0 0 0 0 0 0 0 0 0 0 0 0 0 0 0 0 0 0 127 0" result="hardAlpha"/>
<feOffset dy="4"/>
<feGaussianBlur stdDeviation="2"/>
<feComposite in2="hardAlpha" operator="arithmetic" k2="-1" k3="1"/>
<feColorMatrix type="matrix" values="0 0 0 0 0 0 0 0 0 0 0 0 0 0 0 0 0 0 0.25 0"/>
<feBlend mode="normal" in2="shape" result="effect1_innerShadow_1_36"/>
</filter>
<filter id="filter1_i_1_36" x="73.5817" y="0" width="52.8365" height="58.2705" filterUnits="userSpaceOnUse" color-interpolation-filters="sRGB">
<feFlood flood-opacity="0" result="BackgroundImageFix"/>
<feBlend mode="normal" in="SourceGraphic" in2="BackgroundImageFix" result="shape"/>
<feColorMatrix in="SourceAlpha" type="matrix" values="0 0 0 0 0 0 0 0 0 0 0 0 0 0 0 0 0 0 127 0" result="hardAlpha"/>
<feOffset dy="4"/>
<feGaussianBlur stdDeviation="2"/>
<feComposite in2="hardAlpha" operator="arithmetic" k2="-1" k3="1"/>
<feColorMatrix type="matrix" values="0 0 0 0 0 0 0 0 0 0 0 0 0 0 0 0 0 0 0.25 0"/>
<feBlend mode="normal" in2="shape" result="effect1_innerShadow_1_36"/>
</filter>
<filter id="filter2_i_1_36" x="145.804" y="0" width="52.8365" height="58.2705" filterUnits="userSpaceOnUse" color-interpolation-filters="sRGB">
<feFlood flood-opacity="0" result="BackgroundImageFix"/>
<feBlend mode="normal" in="SourceGraphic" in2="BackgroundImageFix" result="shape"/>
<feColorMatrix in="SourceAlpha" type="matrix" values="0 0 0 0 0 0 0 0 0 0 0 0 0 0 0 0 0 0 127 0" result="hardAlpha"/>
<feOffset dy="4"/>
<feGaussianBlur stdDeviation="2"/>
<feComposite in2="hardAlpha" operator="arithmetic" k2="-1" k3="1"/>
<feColorMatrix type="matrix" values="0 0 0 0 0 0 0 0 0 0 0 0 0 0 0 0 0 0 0.25 0"/>
<feBlend mode="normal" in2="shape" result="effect1_innerShadow_1_36"/>
</filter>
<filter id="filter3_i_1_36" x="37.4706" y="60" width="52.8365" height="58.2705" filterUnits="userSpaceOnUse" color-interpolation-filters="sRGB">
<feFlood flood-opacity="0" result="BackgroundImageFix"/>
<feBlend mode="normal" in="SourceGraphic" in2="BackgroundImageFix" result="shape"/>
<feColorMatrix in="SourceAlpha" type="matrix" values="0 0 0 0 0 0 0 0 0 0 0 0 0 0 0 0 0 0 127 0" result="hardAlpha"/>
<feOffset dy="4"/>
<feGaussianBlur stdDeviation="2"/>
<feComposite in2="hardAlpha" operator="arithmetic" k2="-1" k3="1"/>
<feColorMatrix type="matrix" values="0 0 0 0 0 0 0 0 0 0 0 0 0 0 0 0 0 0 0.25 0"/>
<feBlend mode="normal" in2="shape" result="effect1_innerShadow_1_36"/>
</filter>
<filter id="filter4_i_1_36" x="109.693" y="60" width="52.8365" height="58.2705" filterUnits="userSpaceOnUse" color-interpolation-filters="sRGB">
<feFlood flood-opacity="0" result="BackgroundImageFix"/>
<feBlend mode="normal" in="SourceGraphic" in2="BackgroundImageFix" result="shape"/>
<feColorMatrix in="SourceAlpha" type="matrix" values="0 0 0 0 0 0 0 0 0 0 0 0 0 0 0 0 0 0 127 0" result="hardAlpha"/>
<feOffset dy="4"/>
<feGaussianBlur stdDeviation="2"/>
<feComposite in2="hardAlpha" operator="arithmetic" k2="-1" k3="1"/>
<feColorMatrix type="matrix" values="0 0 0 0 0 0 0 0 0 0 0 0 0 0 0 0 0 0 0.25 0"/>
<feBlend mode="normal" in2="shape" result="effect1_innerShadow_1_36"/>
</filter>
<filter id="filter5_i_1_36" x="1.35953" y="0" width="52.8365" height="58.2705" filterUnits="userSpaceOnUse" color-interpolation-filters="sRGB">
<feFlood flood-opacity="0" result="BackgroundImageFix"/>
<feBlend mode="normal" in="SourceGraphic" in2="BackgroundImageFix" result="shape"/>
<feColorMatrix in="SourceAlpha" type="matrix" values="0 0 0 0 0 0 0 0 0 0 0 0 0 0 0 0 0 0 127 0" result="hardAlpha"/>
<feOffset dy="4"/>
<feGaussianBlur stdDeviation="2"/>
<feComposite in2="hardAlpha" operator="arithmetic" k2="-1" k3="1"/>
<feColorMatrix type="matrix" values="0 0 0 0 0 0 0 0 0 0 0 0 0 0 0 0 0 0 0.25 0"/>
<feBlend mode="normal" in2="shape" result="effect1_innerShadow_1_36"/>
</filter>
<filter id="filter6_i_1_36" x="73.5817" y="0" width="52.8365" height="58.2705" filterUnits="userSpaceOnUse" color-interpolation-filters="sRGB">
<feFlood flood-opacity="0" result="BackgroundImageFix"/>
<feBlend mode="normal" in="SourceGraphic" in2="BackgroundImageFix" result="shape"/>
<feColorMatrix in="SourceAlpha" type="matrix" values="0 0 0 0 0 0 0 0 0 0 0 0 0 0 0 0 0 0 127 0" result="hardAlpha"/>
<feOffset dy="4"/>
<feGaussianBlur stdDeviation="2"/>
<feComposite in2="hardAlpha" operator="arithmetic" k2="-1" k3="1"/>
<feColorMatrix type="matrix" values="0 0 0 0 0 0 0 0 0 0 0 0 0 0 0 0 0 0 0.25 0"/>
<feBlend mode="normal" in2="shape" result="effect1_innerShadow_1_36"/>
</filter>
<filter id="filter7_i_1_36" x="145.804" y="0" width="52.8365" height="58.2705" filterUnits="userSpaceOnUse" color-interpolation-filters="sRGB">
<feFlood flood-opacity="0" result="BackgroundImageFix"/>
<feBlend mode="normal" in="SourceGraphic" in2="BackgroundImageFix" result="shape"/>
<feColorMatrix in="SourceAlpha" type="matrix" values="0 0 0 0 0 0 0 0 0 0 0 0 0 0 0 0 0 0 127 0" result="hardAlpha"/>
<feOffset dy="4"/>
<feGaussianBlur stdDeviation="2"/>
<feComposite in2="hardAlpha" operator="arithmetic" k2="-1" k3="1"/>
<feColorMatrix type="matrix" values="0 0 0 0 0 0 0 0 0 0 0 0 0 0 0 0 0 0 0.25 0"/>
<feBlend mode="normal" in2="shape" result="effect1_innerShadow_1_36"/>
</filter>
<filter id="filter8_i_1_36" x="37.4706" y="60" width="52.8365" height="58.2705" filterUnits="userSpaceOnUse" color-interpolation-filters="sRGB">
<feFlood flood-opacity="0" result="BackgroundImageFix"/>
<feBlend mode="normal" in="SourceGraphic" in2="BackgroundImageFix" result="shape"/>
<feColorMatrix in="SourceAlpha" type="matrix" values="0 0 0 0 0 0 0 0 0 0 0 0 0 0 0 0 0 0 127 0" result="hardAlpha"/>
<feOffset dy="4"/>
<feGaussianBlur stdDeviation="2"/>
<feComposite in2="hardAlpha" operator="arithmetic" k2="-1" k3="1"/>
<feColorMatrix type="matrix" values="0 0 0 0 0 0 0 0 0 0 0 0 0 0 0 0 0 0 0.25 0"/>
<feBlend mode="normal" in2="shape" result="effect1_innerShadow_1_36"/>
</filter>
<filter id="filter9_i_1_36" x="109.693" y="60" width="52.8365" height="58.2705" filterUnits="userSpaceOnUse" color-interpolation-filters="sRGB">
<feFlood flood-opacity="0" result="BackgroundImageFix"/>
<feBlend mode="normal" in="SourceGraphic" in2="BackgroundImageFix" result="shape"/>
<feColorMatrix in="SourceAlpha" type="matrix" values="0 0 0 0 0 0 0 0 0 0 0 0 0 0 0 0 0 0 127 0" result="hardAlpha"/>
<feOffset dy="4"/>
<feGaussianBlur stdDeviation="2"/>
<feComposite in2="hardAlpha" operator="arithmetic" k2="-1" k3="1"/>
<feColorMatrix type="matrix" values="0 0 0 0 0 0 0 0 0 0 0 0 0 0 0 0 0 0 0.25 0"/>
<feBlend mode="normal" in2="shape" result="effect1_innerShadow_1_36"/>
</filter>
</defs>
</svg>
